{
	"asset":{
		"generator":"Khronos glTF Blender I/O v4.0.43",
		"version":"2.0"
	},
	"scene":0,
	"scenes":[
		{
			"name":"Scene",
			"nodes":[
				0,
				1,
				2
			]
		}
	],
	"nodes":[
		{
			"mesh":0,
			"name":"Plane"
		},
		{
			"mesh":1,
			"name":"Plane.001",
			"translation":[
				-0.005106329917907715,
				4.6504669189453125,
				-3.4455761909484863
			]
		},
		{
			"mesh":2,
			"name":"Plane.002",
			"translation":[
				0,
				2.6588244438171387,
				-0.2377619594335556
			]
		}
	],
	"materials":[
		{
			"doubleSided":true,
			"emissiveFactor":[
				1,
				1,
				1
			],
			"emissiveTexture":{
				"index":0
			},
			"name":"Material",
			"pbrMetallicRoughness":{
				"baseColorTexture":{
					"index":1
				},
				"metallicFactor":0
			}
		}
	],
	"meshes":[
		{
			"name":"Plane",
			"primitives":[
				{
					"attributes":{
						"POSITION":0,
						"NORMAL":1,
						"TEXCOORD_0":2
					},
					"indices":3,
					"material":0
				}
			]
		},
		{
			"name":"Plane.002",
			"primitives":[
				{
					"attributes":{
						"POSITION":4,
						"NORMAL":5,
						"TEXCOORD_0":6
					},
					"indices":7,
					"material":0
				}
			]
		},
		{
			"name":"Plane.003",
			"primitives":[
				{
					"attributes":{
						"POSITION":8,
						"NORMAL":9,
						"TEXCOORD_0":10
					},
					"indices":11,
					"material":0
				}
			]
		}
	],
	"textures":[
		{
			"sampler":0,
			"source":0
		},
		{
			"sampler":0,
			"source":0
		}
	],
	"images":[
		{
			"mimeType":"image/png",
			"name":"Color_Palette",
			"uri":"Color_Palette.png"
		}
	],
	"accessors":[
		{
			"bufferView":0,
			"componentType":5126,
			"count":1022,
			"max":[
				5.005615234375,
				4.6504669189453125,
				7.743580341339111
			],
			"min":[
				-5.005615234375,
				-1.773210048675537,
				-8.24161148071289
			],
			"type":"VEC3"
		},
		{
			"bufferView":1,
			"componentType":5126,
			"count":1022,
			"type":"VEC3"
		},
		{
			"bufferView":2,
			"componentType":5126,
			"count":1022,
			"type":"VEC2"
		},
		{
			"bufferView":3,
			"componentType":5123,
			"count":2268,
			"type":"SCALAR"
		},
		{
			"bufferView":4,
			"componentType":5126,
			"count":25,
			"max":[
				2.7390260696411133,
				0,
				6.92680549621582
			],
			"min":[
				-2.7390260696411133,
				-2.926485061645508,
				0
			],
			"type":"VEC3"
		},
		{
			"bufferView":5,
			"componentType":5126,
			"count":25,
			"type":"VEC3"
		},
		{
			"bufferView":6,
			"componentType":5126,
			"count":25,
			"type":"VEC2"
		},
		{
			"bufferView":7,
			"componentType":5123,
			"count":60,
			"type":"SCALAR"
		},
		{
			"bufferView":8,
			"componentType":5126,
			"count":512,
			"max":[
				1.1355855464935303,
				8.260581970214844,
				8.260580062866211
			],
			"min":[
				-1.1355860233306885,
				-8.260581970214844,
				-8.260581016540527
			],
			"type":"VEC3"
		},
		{
			"bufferView":9,
			"componentType":5126,
			"count":512,
			"type":"VEC3"
		},
		{
			"bufferView":10,
			"componentType":5126,
			"count":512,
			"type":"VEC2"
		},
		{
			"bufferView":11,
			"componentType":5123,
			"count":1536,
			"type":"SCALAR"
		}
	],
	"bufferViews":[
		{
			"buffer":0,
			"byteLength":12264,
			"byteOffset":0,
			"target":34962
		},
		{
			"buffer":0,
			"byteLength":12264,
			"byteOffset":12264,
			"target":34962
		},
		{
			"buffer":0,
			"byteLength":8176,
			"byteOffset":24528,
			"target":34962
		},
		{
			"buffer":0,
			"byteLength":4536,
			"byteOffset":32704,
			"target":34963
		},
		{
			"buffer":0,
			"byteLength":300,
			"byteOffset":37240,
			"target":34962
		},
		{
			"buffer":0,
			"byteLength":300,
			"byteOffset":37540,
			"target":34962
		},
		{
			"buffer":0,
			"byteLength":200,
			"byteOffset":37840,
			"target":34962
		},
		{
			"buffer":0,
			"byteLength":120,
			"byteOffset":38040,
			"target":34963
		},
		{
			"buffer":0,
			"byteLength":6144,
			"byteOffset":38160,
			"target":34962
		},
		{
			"buffer":0,
			"byteLength":6144,
			"byteOffset":44304,
			"target":34962
		},
		{
			"buffer":0,
			"byteLength":4096,
			"byteOffset":50448,
			"target":34962
		},
		{
			"buffer":0,
			"byteLength":3072,
			"byteOffset":54544,
			"target":34963
		}
	],
	"samplers":[
		{
			"magFilter":9728,
			"minFilter":9984
		}
	],
	"buffers":[
		{
			"byteLength":57616,
			"uri":"HexCycle.bin"
		}
	]
}
